<svg width="167" height="167" viewBox="0 0 167 167" fill="none" xmlns="http://www.w3.org/2000/svg">
<path d="M147 35C120.361 29.4567 56.4655 41.9863 26 136M153 43.5C150.811 78.5817 127.746 155.392 69 161.596M137 63C118 75 84.5 105.084 82 107.5C81 108.466 60.5 128.752 27 136" stroke="#0AA9FD" stroke-width="6"/>
<path d="M132.061 20.0172C97.7144 19.2937 26.0287 41.1378 22.0614 129.26M156.561 52.7596C144.561 48.6293 110.561 41.7597 68.0614 94.2596C54.0614 111.554 20.0846 136.748 22.0846 128.76M156.561 52.7596C144.561 48.6293 110.561 41.7597 68.0614 94.2596" stroke="#E23732" stroke-width="6"/>
<path d="M163.5 83.5C163.5 127.683 127.683 163.5 83.5 163.5C39.3172 163.5 3.5 127.683 3.5 83.5C3.5 39.3172 39.3172 3.5 83.5 3.5C127.683 3.5 163.5 39.3172 163.5 83.5Z" stroke="#FFFDF8" stroke-width="6"/>
<path d="M25.1421 129.216C25.028 129.216 24.9568 129.32 24.8699 129.381C24.7735 129.449 24.657 129.49 24.5822 129.583" stroke="#DE0124" stroke-width="3" stroke-linecap="round"/>
<path d="M139 49C137.452 76.16 110.584 135.69 37.5 148.106M104 5.52035C61 5.52035 9.5 49 19.6216 130.5M164 83C164 127.183 128.183 163 84 163C39.8172 163 4 127.183 4 83C4 38.8172 39.8172 3 84 3C128.183 3 164 38.8172 164 83Z" stroke="#FFFDF8" stroke-width="6"/>
<path d="M26.5 139C15 124 14.5 120.5 18 122" stroke="#FFFDF8" stroke-width="6"/>
<path d="M17 119C17.6667 122.431 19.4 129.833 21 132" stroke="#FFFDF8" stroke-width="6"/>
<path d="M157.5 52.7816C145.5 48.6512 110.5 42 68 94.5" stroke="#DD0023" stroke-width="6"/>
<path d="M163.5 85C163.5 40.8172 127.683 5 83.5 5" stroke="#FFFDF8" stroke-width="6"/>
</svg>
